<mxfile host="app.diagrams.net" modified="2023-06-12T09:12:47.930Z" agent="Mozilla/5.0 (Windows NT 10.0; Win64; x64) AppleWebKit/537.36 (KHTML, like Gecko) Chrome/114.0.0.0 Safari/537.36" etag="fP9f73AD-ZJGn7NQrOrQ" version="21.3.8" type="github">
  <diagram name="Intersection" id="mjdflIWaUyTx3Rmq8xrl">
    <mxGraphModel dx="1434" dy="764" grid="1" gridSize="10" guides="1" tooltips="1" connect="1" arrows="1" fold="1" page="1" pageScale="1" pageWidth="850" pageHeight="1100" math="0" shadow="0">
      <root>
        <mxCell id="0" />
        <mxCell id="1" parent="0" />
        <mxCell id="xl5SwCBmhRfWHx-1p6Vz-9" style="edgeStyle=orthogonalEdgeStyle;rounded=0;orthogonalLoop=1;jettySize=auto;html=1;exitX=1;exitY=0.5;exitDx=0;exitDy=0;entryX=0;entryY=0.5;entryDx=0;entryDy=0;" edge="1" parent="1" source="xl5SwCBmhRfWHx-1p6Vz-1" target="xl5SwCBmhRfWHx-1p6Vz-2">
          <mxGeometry relative="1" as="geometry" />
        </mxCell>
        <mxCell id="xl5SwCBmhRfWHx-1p6Vz-1" value="a1" style="ellipse;whiteSpace=wrap;html=1;aspect=fixed;" vertex="1" parent="1">
          <mxGeometry x="120" y="40" width="40" height="40" as="geometry" />
        </mxCell>
        <mxCell id="xl5SwCBmhRfWHx-1p6Vz-12" style="edgeStyle=none;rounded=0;orthogonalLoop=1;jettySize=auto;html=1;exitX=1;exitY=0.5;exitDx=0;exitDy=0;entryX=0;entryY=0;entryDx=0;entryDy=0;" edge="1" parent="1" source="xl5SwCBmhRfWHx-1p6Vz-2" target="xl5SwCBmhRfWHx-1p6Vz-6">
          <mxGeometry relative="1" as="geometry" />
        </mxCell>
        <mxCell id="xl5SwCBmhRfWHx-1p6Vz-2" value="a2" style="ellipse;whiteSpace=wrap;html=1;aspect=fixed;" vertex="1" parent="1">
          <mxGeometry x="200" y="40" width="40" height="40" as="geometry" />
        </mxCell>
        <mxCell id="xl5SwCBmhRfWHx-1p6Vz-14" style="edgeStyle=none;rounded=0;orthogonalLoop=1;jettySize=auto;html=1;exitX=1;exitY=0.5;exitDx=0;exitDy=0;entryX=0;entryY=0.5;entryDx=0;entryDy=0;" edge="1" parent="1" source="xl5SwCBmhRfWHx-1p6Vz-3" target="xl5SwCBmhRfWHx-1p6Vz-4">
          <mxGeometry relative="1" as="geometry" />
        </mxCell>
        <mxCell id="xl5SwCBmhRfWHx-1p6Vz-3" value="b1" style="ellipse;whiteSpace=wrap;html=1;aspect=fixed;" vertex="1" parent="1">
          <mxGeometry x="40" y="120" width="40" height="40" as="geometry" />
        </mxCell>
        <mxCell id="xl5SwCBmhRfWHx-1p6Vz-15" style="edgeStyle=none;rounded=0;orthogonalLoop=1;jettySize=auto;html=1;exitX=1;exitY=0.5;exitDx=0;exitDy=0;entryX=0;entryY=0.5;entryDx=0;entryDy=0;" edge="1" parent="1" source="xl5SwCBmhRfWHx-1p6Vz-4" target="xl5SwCBmhRfWHx-1p6Vz-5">
          <mxGeometry relative="1" as="geometry" />
        </mxCell>
        <mxCell id="xl5SwCBmhRfWHx-1p6Vz-4" value="b2" style="ellipse;whiteSpace=wrap;html=1;aspect=fixed;" vertex="1" parent="1">
          <mxGeometry x="120" y="120" width="40" height="40" as="geometry" />
        </mxCell>
        <mxCell id="xl5SwCBmhRfWHx-1p6Vz-13" style="edgeStyle=none;rounded=0;orthogonalLoop=1;jettySize=auto;html=1;exitX=1;exitY=0.5;exitDx=0;exitDy=0;entryX=0;entryY=1;entryDx=0;entryDy=0;" edge="1" parent="1" source="xl5SwCBmhRfWHx-1p6Vz-5" target="xl5SwCBmhRfWHx-1p6Vz-6">
          <mxGeometry relative="1" as="geometry" />
        </mxCell>
        <mxCell id="xl5SwCBmhRfWHx-1p6Vz-5" value="b3" style="ellipse;whiteSpace=wrap;html=1;aspect=fixed;" vertex="1" parent="1">
          <mxGeometry x="200" y="120" width="40" height="40" as="geometry" />
        </mxCell>
        <mxCell id="xl5SwCBmhRfWHx-1p6Vz-16" style="edgeStyle=none;rounded=0;orthogonalLoop=1;jettySize=auto;html=1;exitX=1;exitY=0.5;exitDx=0;exitDy=0;entryX=0;entryY=0.5;entryDx=0;entryDy=0;" edge="1" parent="1" source="xl5SwCBmhRfWHx-1p6Vz-6" target="xl5SwCBmhRfWHx-1p6Vz-7">
          <mxGeometry relative="1" as="geometry" />
        </mxCell>
        <mxCell id="xl5SwCBmhRfWHx-1p6Vz-6" value="c1" style="ellipse;whiteSpace=wrap;html=1;aspect=fixed;" vertex="1" parent="1">
          <mxGeometry x="280" y="80" width="40" height="40" as="geometry" />
        </mxCell>
        <mxCell id="xl5SwCBmhRfWHx-1p6Vz-17" style="edgeStyle=none;rounded=0;orthogonalLoop=1;jettySize=auto;html=1;exitX=1;exitY=0.5;exitDx=0;exitDy=0;entryX=0;entryY=0.5;entryDx=0;entryDy=0;" edge="1" parent="1" source="xl5SwCBmhRfWHx-1p6Vz-7" target="xl5SwCBmhRfWHx-1p6Vz-8">
          <mxGeometry relative="1" as="geometry" />
        </mxCell>
        <mxCell id="xl5SwCBmhRfWHx-1p6Vz-7" value="c2" style="ellipse;whiteSpace=wrap;html=1;aspect=fixed;" vertex="1" parent="1">
          <mxGeometry x="360" y="80" width="40" height="40" as="geometry" />
        </mxCell>
        <mxCell id="xl5SwCBmhRfWHx-1p6Vz-19" style="edgeStyle=orthogonalEdgeStyle;rounded=0;orthogonalLoop=1;jettySize=auto;html=1;exitX=0.5;exitY=0;exitDx=0;exitDy=0;entryX=0;entryY=0.5;entryDx=0;entryDy=0;" edge="1" parent="1" source="xl5SwCBmhRfWHx-1p6Vz-8" target="xl5SwCBmhRfWHx-1p6Vz-1">
          <mxGeometry relative="1" as="geometry">
            <Array as="points">
              <mxPoint x="460" y="20" />
              <mxPoint x="100" y="20" />
              <mxPoint x="100" y="60" />
            </Array>
          </mxGeometry>
        </mxCell>
        <mxCell id="xl5SwCBmhRfWHx-1p6Vz-20" style="edgeStyle=orthogonalEdgeStyle;rounded=0;orthogonalLoop=1;jettySize=auto;html=1;exitX=0.5;exitY=1;exitDx=0;exitDy=0;entryX=0;entryY=0.5;entryDx=0;entryDy=0;" edge="1" parent="1" source="xl5SwCBmhRfWHx-1p6Vz-8" target="xl5SwCBmhRfWHx-1p6Vz-3">
          <mxGeometry relative="1" as="geometry">
            <Array as="points">
              <mxPoint x="460" y="180" />
              <mxPoint x="20" y="180" />
              <mxPoint x="20" y="140" />
            </Array>
          </mxGeometry>
        </mxCell>
        <mxCell id="xl5SwCBmhRfWHx-1p6Vz-8" value="c3" style="ellipse;whiteSpace=wrap;html=1;aspect=fixed;" vertex="1" parent="1">
          <mxGeometry x="440" y="80" width="40" height="40" as="geometry" />
        </mxCell>
        <mxCell id="xl5SwCBmhRfWHx-1p6Vz-23" value="&lt;ul&gt;&lt;li&gt;a1-&amp;gt;a2-&amp;gt;c1-&amp;gt;c2-&amp;gt;c3-&amp;gt;b1-&amp;gt;b2-&amp;gt;b3&lt;/li&gt;&lt;li&gt;b1-&amp;gt;b2-&amp;gt;b3-&amp;gt;c1-&amp;gt;c2-&amp;gt;c3-&amp;gt;a1-&amp;gt;a2&lt;/li&gt;&lt;/ul&gt;" style="rounded=0;whiteSpace=wrap;html=1;fillColor=#fff2cc;strokeColor=#d6b656;align=left;" vertex="1" parent="1">
          <mxGeometry x="20" y="200" width="260" height="40" as="geometry" />
        </mxCell>
      </root>
    </mxGraphModel>
  </diagram>
</mxfile>
